<svg xmlns="http://www.w3.org/2000/svg" viewBox="0 0 1200 630" width="1200" height="630">
  <defs>
    <linearGradient id="bgGrad" x1="0%" y1="0%" x2="100%" y2="100%">
      <stop offset="0%" style="stop-color:#0a0510;stop-opacity:1" />
      <stop offset="100%" style="stop-color:#110a1a;stop-opacity:1" />
    </linearGradient>
    <linearGradient id="accentGrad" x1="0%" y1="0%" x2="100%" y2="100%">
      <stop offset="0%" style="stop-color:#b366ff;stop-opacity:1" />
      <stop offset="100%" style="stop-color:#5b21b6;stop-opacity:1" />
    </linearGradient>
    <linearGradient id="wingGrad" x1="0%" y1="0%" x2="100%" y2="100%">
      <stop offset="0%" style="stop-color:#c084fc;stop-opacity:0.8" />
      <stop offset="100%" style="stop-color:#7c3aed;stop-opacity:0.4" />
    </linearGradient>
    <radialGradient id="eyeGlow" cx="50%" cy="50%" r="50%">
      <stop offset="0%" style="stop-color:#e9d5ff;stop-opacity:1" />
      <stop offset="100%" style="stop-color:#b366ff;stop-opacity:0.8" />
    </radialGradient>
    <radialGradient id="centerGlow" cx="50%" cy="50%" r="50%">
      <stop offset="0%" style="stop-color:#b366ff;stop-opacity:0.08" />
      <stop offset="100%" style="stop-color:#0a0510;stop-opacity:0" />
    </radialGradient>
    <filter id="glow">
      <feGaussianBlur stdDeviation="3" result="blur"/>
      <feMerge>
        <feMergeNode in="blur"/>
        <feMergeNode in="SourceGraphic"/>
      </feMerge>
    </filter>
  </defs>

  <!-- Background -->
  <rect width="1200" height="630" fill="url(#bgGrad)"/>
  
  <!-- Subtle grid pattern -->
  <pattern id="grid" width="40" height="40" patternUnits="userSpaceOnUse">
    <path d="M 40 0 L 0 0 0 40" fill="none" stroke="#b366ff" stroke-width="0.3" opacity="0.08"/>
  </pattern>
  <rect width="1200" height="630" fill="url(#grid)"/>
  
  <!-- Center glow -->
  <ellipse cx="600" cy="315" rx="500" ry="300" fill="url(#centerGlow)"/>
  
  <!-- Border accent -->
  <rect x="3" y="3" width="1194" height="624" rx="8" fill="none" stroke="url(#accentGrad)" stroke-width="2" opacity="0.4"/>

  <!-- Dragon icon (scaled up from favicon) -->
  <g transform="translate(130, 180) scale(4)">
    <!-- Left wing -->
    <path d="M8 18 Q6 12 10 8 Q14 14 18 18 Q22 22 26 28 L22 30 Q16 26 12 22 Z" 
          fill="url(#wingGrad)" opacity="0.9"/>
    <!-- Right wing -->
    <path d="M56 18 Q58 12 54 8 Q50 14 46 18 Q42 22 38 28 L42 30 Q48 26 52 22 Z" 
          fill="url(#wingGrad)" opacity="0.9"/>
    <!-- Dragon body/head -->
    <path d="M32 14 Q26 16 24 22 Q22 28 24 32 Q26 36 28 38 L32 42 L36 38 Q38 36 40 32 Q42 28 40 22 Q38 16 32 14 Z" 
          fill="url(#accentGrad)"/>
    <!-- Dragon horns -->
    <path d="M26 18 L22 10 L28 16" fill="url(#accentGrad)"/>
    <path d="M38 18 L42 10 L36 16" fill="url(#accentGrad)"/>
    <!-- Dragon eyes -->
    <circle cx="28" cy="22" r="2.5" fill="url(#eyeGlow)" filter="url(#glow)"/>
    <circle cx="36" cy="22" r="2.5" fill="url(#eyeGlow)" filter="url(#glow)"/>
    <circle cx="28.5" cy="22" r="1" fill="#0a0510"/>
    <circle cx="36.5" cy="22" r="1" fill="#0a0510"/>
    <!-- Dragon snout -->
    <path d="M30 28 L32 32 L34 28" fill="none" stroke="#c084fc" stroke-width="1" stroke-linecap="round"/>
    <circle cx="30" cy="28" r="0.8" fill="#c084fc" opacity="0.6"/>
    <circle cx="34" cy="28" r="0.8" fill="#c084fc" opacity="0.6"/>
    <!-- Tail -->
    <path d="M32 42 Q30 46 28 48 Q24 52 20 54 Q18 55 16 54 Q18 56 22 55 Q28 53 30 50 Q32 48 34 50 Q36 53 42 55 Q46 56 48 54 Q46 55 44 54 Q40 52 36 48 Q34 46 32 42 Z" 
          fill="url(#accentGrad)" opacity="0.85"/>
    <!-- Wing membrane lines -->
    <line x1="10" y1="10" x2="22" y2="28" stroke="#b366ff" stroke-width="0.5" opacity="0.3"/>
    <line x1="14" y1="12" x2="24" y2="28" stroke="#b366ff" stroke-width="0.5" opacity="0.3"/>
    <line x1="54" y1="10" x2="42" y2="28" stroke="#b366ff" stroke-width="0.5" opacity="0.3"/>
    <line x1="50" y1="12" x2="40" y2="28" stroke="#b366ff" stroke-width="0.5" opacity="0.3"/>
  </g>

  <!-- Company Name -->
  <text x="480" y="250" font-family="Arial, Helvetica, sans-serif" font-weight="800" font-size="72" fill="#e4dfe9" letter-spacing="4">
    NOCTURN<tspan fill="#b366ff">3</tspan>
  </text>
  
  <!-- Full Company Name -->
  <text x="480" y="310" font-family="Arial, Helvetica, sans-serif" font-weight="400" font-size="26" fill="#9088a8" letter-spacing="2">
    INFORMATION SECURITY INC.
  </text>

  <!-- Divider line -->
  <line x1="480" y1="340" x2="780" y2="340" stroke="url(#accentGrad)" stroke-width="2" opacity="0.6"/>

  <!-- Tagline -->
  <text x="480" y="380" font-family="Arial, Helvetica, sans-serif" font-weight="300" font-size="22" fill="#e4dfe9">
    Cybersecurity Consulting &amp; Training
  </text>
  
  <!-- Services tags -->
  <text x="480" y="420" font-family="Arial, Helvetica, sans-serif" font-weight="400" font-size="16" fill="#9088a8">
    Security Consulting  ·  VAPT  ·  AI Security  ·  Compliance  ·  Training
  </text>

  <!-- Location -->
  <text x="480" y="470" font-family="Arial, Helvetica, sans-serif" font-weight="400" font-size="16" fill="#b366ff">
    Burlington, Ontario  ·  nocturn3.com
  </text>

  <!-- Bottom accent bar -->
  <rect x="0" y="620" width="1200" height="10" fill="url(#accentGrad)" opacity="0.8"/>
</svg>
